<svg width="21" height="21" viewBox="0 0 21 21" fill="none" xmlns="http://www.w3.org/2000/svg">
<path fill-rule="evenodd" clip-rule="evenodd" d="M5.29279 7.30529C5.48031 7.11782 5.73462 7.0125 5.99979 7.0125C6.26495 7.0125 6.51926 7.11782 6.70679 7.30529L9.99979 10.5983L13.2928 7.30529C13.385 7.20978 13.4954 7.1336 13.6174 7.08119C13.7394 7.02878 13.8706 7.00119 14.0034 7.00004C14.1362 6.99888 14.2678 7.02419 14.3907 7.07447C14.5136 7.12475 14.6253 7.199 14.7192 7.29289C14.8131 7.38679 14.8873 7.49844 14.9376 7.62133C14.9879 7.74423 15.0132 7.87591 15.012 8.00869C15.0109 8.14147 14.9833 8.27269 14.9309 8.39469C14.8785 8.5167 14.8023 8.62704 14.7068 8.71929L10.7068 12.7193C10.5193 12.9068 10.265 13.0121 9.99979 13.0121C9.73462 13.0121 9.48031 12.9068 9.29279 12.7193L5.29279 8.71929C5.10532 8.53176 5 8.27745 5 8.01229C5 7.74712 5.10532 7.49282 5.29279 7.30529Z" fill="black"/>
</svg>
